# xmcd
#
# Track frame offsets:
#	150
#	10551
#	20264
#	35215
#	44452
#	65343
#	76519
#	92049
#	103159
#	112994
#	125216
#	139343
#	150739
#	160761
#	170044
#	182218
#
# Disc length: 2562 seconds
#
# Revision: 3
# Processed by: cddbd v1.5.2PL0 Copyright (c) Steve Scherf et al.
# Submitted via: audiograbber 1.83.01
#
DISCID=d00a0010
DTITLE=Country [deutsch] - Trucker and Country - Musik für unterwegs
DYEAR=1900
DGENRE=deutsch
TTITLE0=Freddy Quinn - Die Schönste Frau Von Texas
TTITLE1=Martin Lauer - Die Letzte Rose Der Prärie
TTITLE2=Dave Dudley - Deutschland Autobahn
TTITLE3=Mary Roos - 7.000 Rinder
TTITLE4=Gunter Gabriel - Er ist ein Kerl
TTITLE5=Ich Fahr`meine Tour - Jonny Hill
TTITLE6=Neno Mal Boro - Halleluja Amigo
TTITLE7=Muntermacher - Country Song
TTITLE8=Florian Haidt - Der Stärkste Mann Hält Das Nicht aus
TTITLE9=Carl Gross - Gold und Weiber
TTITLE10=Vorarlberger Musikanten - Cowboys Vom Alpenland
TTITLE11=Boy Cliff  und die Colorado Singers - Hilly Billy Picadilly
TTITLE12=Sixtons - Blue River [instrumental]
TTITLE13=Boy Cliff  und die Colorado Singers - Tom Dooley
TTITLE14=Marion März - Wer Liebe Sucht [Neufassung]
TTITLE15=Billy Rider and his Cowboys  - Oh Suzanna [instrumental]
EXTD=
EXTT0=
EXTT1=
EXTT2=
EXTT3=
EXTT4=
EXTT5=
EXTT6=
EXTT7=
EXTT8=
EXTT9=
EXTT10=
EXTT11=
EXTT12=
EXTT13=
EXTT14=
EXTT15=
PLAYORDER=
